<?xml version="1.0" encoding="UTF-8"?>
<!DOCTYPE svg PUBLIC "-//W3C//DTD SVG 1.1//EN" "http://www.w3.org/Graphics/SVG/1.1/DTD/svg11.dtd">
<!-- Creator: CorelDRAW 2019 (64-Bit) -->
<svg xmlns="http://www.w3.org/2000/svg" xml:space="preserve" width="3058px" height="2969px" version="1.1" style="shape-rendering:geometricPrecision; text-rendering:geometricPrecision; image-rendering:optimizeQuality; fill-rule:evenodd; clip-rule:evenodd"
viewBox="0 0 3058 2968.27"
 xmlns:xlink="http://www.w3.org/1999/xlink">
 <defs>
  <style type="text/css">
   <![CDATA[
    .fil6 {fill:#FEFEFE;fill-rule:nonzero}
    .fil1 {fill:#00A4CD;fill-rule:nonzero}
    .fil2 {fill:#1B7BAE;fill-rule:nonzero}
    .fil3 {fill:#324374;fill-rule:nonzero}
    .fil4 {fill:#42609B;fill-rule:nonzero}
    .fil5 {fill:#008CBD;fill-rule:nonzero}
    .fil0 {fill:#215F9B;fill-rule:nonzero}
   ]]>
  </style>
 </defs>
 <g id="Capa_x0020_1">
  <metadata id="CorelCorpID_0Corel-Layer"/>
  <g id="_2154626836720">
   <g>
    <path class="fil0" d="M2045.2 2340.19l-9.1 -15.6 218.1 -123.55c41.44,-23.12 38.41,-54.27 38.27,-55.58l-0.08 -1.09 0 -1002.68 18.27 0 0 1002.23c0.54,5.94 2.08,45.14 -47.41,72.75l-218.05 123.52z"/>
   </g>
   <g>
    <path class="fil1" d="M1885.86 2376.91c41.44,-23.11 38.42,-54.26 38.26,-55.57l-0.06 -1.09 0 -378.84 18.27 0 0 378.39c0.53,5.94 2.06,45.13 -47.42,72.74l-287.86 166.76 -9.1 -15.59 287.91 -166.8z"/>
   </g>
   <g>
    <path class="fil1" d="M1152.91 2101.21l-370.34 -203.89c-92.92,-39.05 -107.93,-108.15 -108.52,-111.08l-0.18 -1.76 0 -695.64 18.26 0 0 694.64c1.85,7.59 18.11,64.06 98.03,97.47l0.89 0.42 370.77 204.14 -8.91 15.7z"/>
   </g>
   <g>
    <path class="fil2" d="M1522.81 1531.4l-193.34 -101.95c-54.28,-22.72 -54.91,-90.62 -54.91,-93.51l0 -252.68 10.96 0 0 252.68c0,0.64 0.67,63.84 48.44,83.66l0.47 0.22 193.55 102.06 -5.17 9.52z"/>
   </g>
   <g>
    <path class="fil3" d="M845.13 2177.68l-156.69 -29.64c-85.61,-17.62 -84.91,-66.51 -84.67,-70.92l0 -82.57 10.96 0 -0.02 83.15c-0.11,1.74 -1.85,43.75 75.88,59.75l156.6 29.63 -2.06 10.6z"/>
   </g>
   <g>
    <path class="fil4" d="M1993.65 2471.26l-282.79 162.02c-1.54,0.8 -39.09,21.01 -37.49,87.12 0.68,28.36 0.83,167.62 0.77,247.87l-18.27 0c0.08,-79.66 -0.07,-218.86 -0.76,-247.44 -1.83,-75.75 42.74,-101.1 47.2,-103.45l281.95 -161.55c49.36,-30.16 43.9,-70.26 43.65,-71.95l-0.11 -1.39 0 -1679.96 18.26 0 0 1679.35c0.89,7.12 4.51,54.61 -52.41,89.38z"/>
   </g>
   <g>
    <path class="fil5" d="M1864.59 1587.85l-204.15 114.93 -1.32 0.44c-1.7,0.63 -45.4,17.35 -46.65,92.28l0 1172.77 -29.21 0 0 -1173c1.48,-89.02 54.67,-114.62 64.82,-118.69l201.97 -113.71c39.42,-22.36 40.08,-61.5 40.08,-63.15l0 -174.29 29.22 0 0 174.26c0.02,2.21 -0.18,57.19 -54.76,88.16z"/>
   </g>
   <g>
    <path class="fil5" d="M1443.84 2968.27l0 -1514.89c-1.9,-78.44 -51.64,-96.1 -53.76,-96.81l-1.39 -0.47 -1.41 -0.78 -265.41 -153.44c-73.18,-33.03 -71.99,-103.1 -71.64,-110.64l0 -315.92 29.23 0 -0.03 317.21c-0.13,2.28 -2.52,57.76 55.2,83.44l1.38 0.7 264.92 153.16c11.3,4.27 69.89,30.85 72.12,123.22l0.01 1515.22 -29.22 0z"/>
   </g>
   <g>
    <path class="fil4" d="M1382.69 2968.27l0 -493.52c-2.42,-71.24 -40.75,-104.5 -45.1,-108.04l-132.74 -74.73c-56.99,-28.22 -54.39,-82.64 -53.89,-88.9l0 -249.39 18.26 0 -0.05 250.68c-0.17,1.91 -3.9,48 44.08,71.63l0.44 0.24 134.6 75.87c2.04,1.53 49.81,38.47 52.65,122.34l0.01 493.82 -18.26 0z"/>
   </g>
   <g>
    <path class="fil0" d="M1521.93 2666.86l-606.8 -347.99c-81.56,-44.75 -81.7,-123.67 -81.57,-130.18l0 -564.88 32.87 0 -0.01 565.59c-0.05,2.57 -0.66,65.31 64.99,101.33l607.06 348.14 -16.54 27.99z"/>
   </g>
   <g>
    <path class="fil3" d="M1541.41 2464.65l-16.38 -28.07 767.32 -434.52c88.63,-46.09 91.05,-83.12 91.04,-87.15l-0.53 -1.82 0.35 -0.81 0 -136.82 32.87 0 0 135.81c1.22,11.82 -0.46,63.23 -108.12,119.29l-766.55 434.09z"/>
   </g>
   <g>
    <polygon class="fil3" points="1511.84,2968.27 1511.84,615.59 1544.71,615.59 1544.71,2968.27 "/>
   </g>
   <g>
    <path class="fil3" d="M1288.14 394.58c0,-130.66 107.51,-236.58 240.14,-236.58 132.62,0 240.13,105.92 240.13,236.58 0,130.67 -107.51,236.59 -240.13,236.59 -132.63,0 -240.14,-105.92 -240.14,-236.59z"/>
   </g>
   <g>
    <path class="fil4" d="M1845.19 531.15c0,-104.38 85.88,-189 191.84,-189 105.94,0 191.83,84.62 191.83,189 0,104.38 -85.89,188.99 -191.83,188.99 -105.96,0 -191.84,-84.61 -191.84,-188.99z"/>
   </g>
   <g>
    <path class="fil1" d="M472.55 887.63c0,-112.49 92.55,-203.67 206.73,-203.67 114.17,0 206.72,91.18 206.72,203.67 0,112.48 -92.55,203.66 -206.72,203.66 -114.18,0 -206.73,-91.18 -206.73,-203.66z"/>
   </g>
   <g>
    <path class="fil3" d="M2125.66 1526.67c0,-149.07 122.66,-269.91 273.97,-269.91 151.3,0 273.97,120.84 273.97,269.91 0,149.07 -122.67,269.92 -273.97,269.92 -151.31,0 -273.97,-120.85 -273.97,-269.92z"/>
   </g>
   <g>
    <path class="fil0" d="M595.22 1377.95c0,-139.68 114.92,-252.9 256.7,-252.9 141.76,0 256.7,113.22 256.7,252.9 0,139.68 -114.94,252.9 -256.7,252.9 -141.78,0 -256.7,-113.22 -256.7,-252.9z"/>
   </g>
   <g>
    <path class="fil5" d="M848.23 568.85c0,-118.68 97.65,-214.88 218.11,-214.88 120.45,0 218.11,96.2 218.11,214.88 0,118.68 -97.66,214.88 -218.11,214.88 -120.46,0 -218.11,-96.2 -218.11,-214.88z"/>
   </g>
   <g>
    <path class="fil0" d="M2103.73 959.24c0,-108.42 89.2,-196.32 199.27,-196.32 110.04,0 199.25,87.9 199.25,196.32 0,108.42 -89.21,196.31 -199.25,196.31 -110.07,0 -199.27,-87.89 -199.27,-196.31z"/>
   </g>
   <g>
    <path class="fil1" d="M1721.57 1852.34c0,-117.35 96.56,-212.48 215.68,-212.48 119.11,0 215.67,95.13 215.67,212.48 0,117.35 -96.56,212.49 -215.67,212.49 -119.12,0 -215.68,-95.14 -215.68,-212.49z"/>
   </g>
   <g>
    <path class="fil5" d="M1713.5 1139.37c0,-103.97 85.55,-188.24 191.07,-188.24 105.52,0 191.07,84.27 191.07,188.24 0,103.96 -85.55,188.24 -191.07,188.24 -105.52,0 -191.07,-84.28 -191.07,-188.24z"/>
   </g>
   <g>
    <path class="fil3" d="M434.2 1825.32c0,-94.88 78.07,-171.79 174.37,-171.79 96.3,0 174.37,76.91 174.37,171.79 0,94.88 -78.07,171.79 -174.37,171.79 -96.3,0 -174.37,-76.91 -174.37,-171.79z"/>
   </g>
   <g>
    <path class="fil2" d="M1116.85 932.91c0,-89.11 73.32,-161.35 163.77,-161.35 90.45,0 163.78,72.24 163.78,161.35 0,89.11 -73.33,161.35 -163.78,161.35 -90.45,0 -163.77,-72.24 -163.77,-161.35z"/>
   </g>
   <g>
    <path class="fil4" d="M949.01 1799.24c0,-115.29 94.87,-208.76 211.9,-208.76 117.02,0 211.89,93.47 211.89,208.76 0,115.29 -94.87,208.76 -211.89,208.76 -117.03,0 -211.9,-93.47 -211.9,-208.76z"/>
   </g>
  </g>
  <path class="fil6" d="M1596.74 240.04l-128.11 0c-16.93,0 -30.63,13.51 -30.63,30.18l0 217.7c0,16.67 13.7,30.18 30.63,30.18l128.11 0c16.92,0 30.64,-13.51 30.64,-30.18l0 -217.7c0,-16.67 -13.72,-30.18 -30.64,-30.18zm-64.06 250.78l0 0c-9.45,0 -17.09,-7.54 -17.09,-16.85 0,-9.31 7.64,-16.85 17.09,-16.85 9.45,0 17.11,7.54 17.11,16.85 0,9.31 -7.66,16.85 -17.11,16.85zm68.24 -50.39l0 0 -136.5 0 0 -172.75 136.5 0 0 172.75z"/>
  <g id="_2154626834512">
   <path class="fil6" d="M2449.1 1419.95l-211.91 0c-10.21,0 -18.52,8.17 -18.52,18.24l0 141.89c0,10.06 8.31,18.22 18.52,18.22l83.02 0 0 12.55 -78.63 0c-2.47,0 -4.44,1.95 -4.44,4.39 0,2.41 1.97,4.39 4.44,4.39l203.64 0c2.48,0 4.46,-1.98 4.46,-4.39 0,-2.44 -1.98,-4.39 -4.46,-4.39l-69.7 0 0 -12.55 73.58 0c10.22,0 18.5,-8.16 18.5,-18.22l0 -141.89c0,-10.07 -8.28,-18.24 -18.5,-18.24zm5.17 146.92l0 0c0,8.48 -7.39,15.39 -16.46,15.39l-188.42 0c-9.08,0 -16.44,-6.91 -16.44,-15.39l0 -119.93c0,-8.49 7.36,-15.4 16.44,-15.4l188.42 0c9.07,0 16.46,6.91 16.46,15.4l0 119.93z"/>
   <path class="fil6" d="M2550.64 1418.71c-31.53,0 -54.99,4.9 -57.13,46.88l0 113.94c1.43,43.36 25.6,46.86 57.13,46.86 31.57,0 57.16,-5.6 57.16,-46.86l0 -113.94c-0.72,-37.08 -25.59,-46.88 -57.16,-46.88zm1.42 181.11l0 0c-7.64,0 -13.83,-6.12 -13.83,-13.64 0,-7.52 6.19,-13.64 13.83,-13.64 7.66,0 13.84,6.12 13.84,13.64 0,7.52 -6.18,13.64 -13.84,13.64zm30.87 -96.5l0 0 -63.16 0c-2.74,0 -4.96,-2.19 -4.96,-4.9 0,-2.7 2.22,-4.88 4.96,-4.88l63.16 0c2.75,0 4.97,2.18 4.97,4.88 0,2.71 -2.22,4.9 -4.97,4.9zm0 -33.55l0 0 -63.16 0c-2.74,0 -4.96,-2.21 -4.96,-4.91 0,-2.69 2.22,-4.88 4.96,-4.88l63.16 0c2.75,0 4.97,2.19 4.97,4.88 0,2.7 -2.22,4.91 -4.97,4.91z"/>
  </g>
  <g id="_2154626832592">
   <path class="fil6" d="M791.1 1503.52l11.95 0c-0.78,-1.42 -1.31,-2.96 -1.31,-4.67 0,-5.58 4.59,-10.09 10.23,-10.09l59.9 0c5.64,0 10.24,4.51 10.24,10.09 0,1.71 -0.56,3.25 -1.3,4.67l11.14 0c7.16,0 12.99,5.73 12.99,12.8 0,7.07 -5.83,12.8 -12.99,12.8l-100.85 0c-7.17,0 -13,-5.73 -13,-12.8 0,-7.07 5.83,-12.8 13,-12.8z"/>
   <path class="fil6" d="M697.35 1297.16l0 137.19c0,22.12 18.18,40.01 40.61,40.01l219.19 0c22.43,0 40.61,-17.89 40.61,-40.01l0 -137.19c0,-22.09 -18.18,-40 -40.61,-40l-219.19 0c-22.43,0 -40.61,17.91 -40.61,40zm35.34 117.51l0 0 0 -97.81c-0.09,-19.11 3.42,-28.64 31.23,-28.53l168.47 0c22.1,0.32 30.01,5.52 31.22,28.53l0 97.81c0.11,20.31 -7.37,28.98 -31.22,28.52l-168.47 0c-22.1,0.88 -32.22,-6.46 -31.23,-28.52z"/>
  </g>
  <g id="_2154626825968">
   <g>
    <path class="fil6" d="M625.22 928.27c0.2,-0.18 0.4,-0.33 0.6,-0.49 0.13,-0.1 0.26,-0.2 0.4,-0.29 11.89,-12.45 29.04,-20.02 47.84,-19.81l0 -0.03c0.27,-0.01 0.52,0.02 0.78,0.01 0.26,0.01 0.5,-0.02 0.77,-0.01l0 0.03c18.81,-0.21 35.94,7.36 47.85,19.81 0.13,0.09 0.27,0.19 0.4,0.29 0.2,0.16 0.39,0.31 0.59,0.49 4.04,3.52 4.95,8.77 2.03,11.71l-8.91 9.02c-2.93,2.93 -8.57,2.47 -12.61,-1.05 -0.1,-0.09 -0.19,-0.2 -0.31,-0.29l-0.01 0.03c-0.11,-0.12 -0.22,-0.23 -0.31,-0.35 -0.35,-0.41 -0.7,-0.82 -1.06,-1.2 -6.76,-7.36 -16.72,-11.84 -27.66,-11.6l0 0.07c-0.2,-0.02 -0.41,-0.07 -0.6,-0.07 -0.06,0 -0.12,-0.01 -0.17,-0.01 -0.06,0 -0.12,0.01 -0.16,0.01 -0.22,0 -0.4,0.05 -0.62,0.07l0 -0.07c-10.94,-0.24 -20.89,4.24 -27.65,11.6 -0.37,0.38 -0.72,0.79 -1.07,1.2 -0.09,0.12 -0.2,0.23 -0.3,0.35l-0.03 -0.03c-0.11,0.09 -0.19,0.2 -0.3,0.29 -4.04,3.52 -9.68,3.98 -12.6,1.05l-8.91 -9.02c-2.93,-2.94 -2.02,-8.19 2.02,-11.71z"/>
    <path class="fil6" d="M540.6 827.6c0.26,-0.29 0.55,-0.58 0.85,-0.85 0.38,-0.34 0.78,-0.61 1.18,-0.88 34.55,-31.14 81.38,-49.57 132.21,-48.2 50.82,-1.37 97.64,17.06 132.2,48.2 0.41,0.27 0.81,0.54 1.18,0.88 0.3,0.27 0.59,0.56 0.85,0.85 3.23,3.54 3.38,8.65 0.15,11.9l-10.66 10.76c-3.12,3.13 -8.32,3.45 -12.29,0.96l-0.03 0.02c-0.07,-0.05 -0.15,-0.12 -0.23,-0.19 -0.36,-0.25 -0.72,-0.51 -1.07,-0.81 -0.49,-0.41 -0.9,-0.87 -1.27,-1.33 -28.32,-25.3 -66.58,-40.23 -108.06,-39.05l0 0.01c-0.26,-0.01 -0.51,0 -0.77,-0.01 -0.26,0.01 -0.51,0 -0.78,0.01l0 -0.01c-41.49,-1.18 -79.74,13.75 -108.06,39.05 -0.36,0.46 -0.79,0.92 -1.27,1.33 -0.35,0.3 -0.7,0.56 -1.07,0.81 -0.07,0.07 -0.15,0.14 -0.23,0.19l-0.03 -0.02c-3.96,2.49 -9.17,2.17 -12.29,-0.96l-10.67 -10.76c-3.22,-3.25 -3.06,-8.36 0.16,-11.9z"/>
    <path class="fil6" d="M586.8 879.06c0.41,-0.33 0.82,-0.64 1.26,-0.93 22.14,-21.15 52.68,-34.01 86,-33.84l0 -0.02c0.27,0 0.52,0.01 0.78,0.01 0.26,0 0.51,-0.01 0.77,-0.01l0 0.02c33.33,-0.17 63.86,12.69 85.99,33.84 0.45,0.29 0.87,0.6 1.27,0.93 0.16,0.15 0.31,0.31 0.48,0.46 3.59,3.54 4.06,8.73 0.94,11.87l-9.94 10.04c-3.04,3.08 -8.39,3.1 -12.36,0.24 -0.3,-0.22 -0.59,-0.43 -0.86,-0.67 -0.72,-0.63 -1.33,-1.34 -1.84,-2.08 -16.61,-15.7 -39.51,-25.08 -64.45,-24.71 -24.95,-0.37 -47.84,9.01 -64.46,24.71 -0.49,0.74 -1.12,1.45 -1.84,2.08 -0.27,0.24 -0.56,0.45 -0.85,0.67 -3.99,2.86 -9.33,2.84 -12.36,-0.24l-9.94 -10.04c-3.13,-3.14 -2.66,-8.33 0.93,-11.87 0.16,-0.15 0.33,-0.31 0.48,-0.46z"/>
   </g>
   <path class="fil6" d="M674.84 965.15c12.18,0 22.04,9.71 22.04,21.71 0,12 -9.86,21.72 -22.04,21.72 -12.18,0 -22.05,-9.72 -22.05,-21.72 0,-12 9.87,-21.71 22.05,-21.71z"/>
  </g>
  <g id="_2154626823088">
   <path class="fil6" d="M2322.82 939.3c0,-11.62 -9.41,-21.02 -21.01,-21.02 -11.61,0 -21.02,9.4 -21.02,21.02 0,7.49 3.96,14.02 9.87,17.74 -1.11,76.29 -43.5,122.79 -43.5,122.79l20.28 -1.02 16.23 -23.33 37.51 0 15.22 24.35 23.33 0c-38.22,-38.22 -45.83,-114.2 -46.58,-122.89 5.8,-3.75 9.67,-10.23 9.67,-17.64zm-23.85 46.96l0 0c4.36,1.31 8.75,-0.44 8.75,-0.44l2.63 19.71 -13.14 0.45c0,0 1.32,-16.66 1.76,-19.72zm20.15 55.2l0 0c-10.15,-1.01 -32.42,-0.18 -32.42,-0.18 0,0 5.07,-14.19 7.11,-22.3 9.52,0.14 19.16,-0.3 19.16,-0.3 0,0 3.1,15.68 6.15,22.78z"/>
   <path class="fil6" d="M2325.47 983.96l2.27 1.13c17,-9.35 28.55,-27.85 28.55,-49.15 0,-30.75 -24.07,-55.68 -53.77,-55.68 -29.7,0 -53.78,24.93 -53.78,55.68 0,20.02 10.27,37.54 25.6,47.35 1.02,-0.23 2.1,-0.47 3.17,-0.7 -13.52,-9.14 -22.55,-25.42 -22.55,-44.04 0,-28.64 21.3,-46.62 47.56,-46.62 26.26,0 47.57,17.98 47.57,46.62 0,19.56 -9.95,36.58 -24.62,45.41z"/>
   <path class="fil6" d="M2302.52 836.37c-54.47,0 -98.64,44.17 -98.64,98.65 0,35.5 18.8,66.53 46.94,83.9 1.88,-0.39 3.87,-0.81 5.82,-1.22 -24.8,-16.2 -41.37,-45.05 -41.37,-78.05 0,-50.74 39.07,-91.88 87.25,-91.88 48.19,0 87.24,41.14 87.24,91.88 0,34.67 -18.24,64.83 -45.15,80.47l4.18 2.01c31.15,-16.58 52.38,-49.36 52.38,-87.11 0,-54.48 -44.18,-98.65 -98.65,-98.65z"/>
  </g>
  <g id="_2154626821072">
   <path class="fil6" d="M1789.28 1906.19c-25.1,21.9 -10,37.28 -10,37.28l212.6 20.66 56.49 -68.68c0,0 8.4,-86.41 11.41,-117.42 1.98,-20.43 -15.71,-20.92 -15.71,-20.92 0,0 -131.74,-12.79 -168.44,-16.36 -31.22,-3.02 -28.59,18.08 -28.59,18.08l-10.38 106.77c0,0 -22.27,18.7 -47.38,40.59zm65.1 -19.8l0 0 27.4 2.66 -13.16 10.85 -26.18 -2.54 11.94 -10.97zm52.04 17.18l0 0 -26.17 -2.54 11.93 -10.97 27.4 2.66 -13.16 10.85zm23.57 -9.83l0 0 27.41 2.66 -13.17 10.85 -26.18 -2.54 11.94 -10.97zm-68 -25.67l0 0 10.15 -104.47 158.16 15.36 -10.14 104.47 -158.17 -15.36zm120.02 42.85l0 0 -26.16 -2.54 11.94 -10.97 27.4 2.66 -13.18 10.85zm-47.2 16.8l0 0 11.96 -10.96 27.4 2.66 -13.18 10.83 -26.18 -2.53zm-37.77 -3.68l0 0 11.92 -10.95 27.4 2.67 -13.17 10.82 -26.15 -2.54zm-37.8 -3.67l0 0 11.93 -10.95 27.39 2.66 -13.15 10.83 -26.17 -2.54zm-37.82 -3.68l0 0 11.93 -10.95 27.38 2.67 -13.15 10.83 -26.16 -2.55z"/>
   <polygon class="fil6" points="1955.57,1811.33 1982.37,1840.86 1972.97,1847.54 1946.13,1817.26 1937.3,1832.81 1925.84,1783.98 1973.3,1809.39 "/>
  </g>
  <g id="_2154626818896">
   <path class="fil6" d="M1059.78 521.21c0,0 -0.07,2.27 4.26,2.42l11.32 1.56c0,0 3.32,0.36 5.27,4.41 0,0 3.09,4.75 1.73,7.04l-8.95 12.92c0,0 -1.94,1.99 0.15,4.69l9.52 9.03c0,0 3.03,1.64 4.97,-0.57l8.8 -6.82c0,0 3.32,-3.2 8.52,-0.71 0,0 5.55,1.77 6.19,5.4l1.88 13.35c0,0 0,3.21 4.18,3.07l11.9 0c0,0 3.61,-0.65 3.82,-3.49l1.53 -12.07c0,0 -0.15,-3.49 4.17,-5.48 0,0 5.34,-3.76 9.24,-0.92l10.81 7.88c0,0 2.03,2.14 5.7,-0.42l8 -7.89c0,0 2.68,-2.91 -0.06,-5.83l-7.5 -9.87c0,0 -2.24,-2.42 0.07,-7.33 0,0 1.66,-5.89 6.06,-6.32l12.33 -1.78c0,0 3.82,-0.07 3.9,-3.97l-0.15 -11.02c0,0 0.22,-4.19 -4.25,-4.68l-12.91 -1.22c0,0 -3.9,-1.71 -5.19,-5.32 0,0 -2.39,-5.55 0.27,-8.33l7.47 -10.04c0,0 2.08,-2.99 0.09,-5.23l-9.85 -9.33c0,0 -2.46,-1.21 -4.08,0.37l-11.65 8.87c0,0 -4.17,1.23 -8.08,-1.4 0,0 -4.25,-2.27 -4.82,-3.77 0,0 -1.88,-13.93 -1.95,-14.63 0,0 -0.15,-3.06 -3.17,-3.13l-12.7 -0.07c0,0 -2.74,0.43 -3.02,2.56l-2.32 15.78c0,0 -2.31,3.11 -5.63,3.97 0,0 -5.76,1.35 -7.71,0.07l-10.53 -7.74c0,0 -2.88,-2.64 -5.48,-0.28l-9.01 8.81c0,0 -1.81,1.84 -0.07,4.19l8.72 11.36c0,0 2.95,3.21 -0.87,9.1 0,0 -1.8,4.76 -7.57,5.33 -5.77,0.56 -10.9,1.42 -10.9,1.42 0,0 -3.1,0.15 -3.17,3.34 -0.07,3.2 0.72,12.72 0.72,12.72zm39.19 -7.42l0 0c0,-13.24 10.9,-23.99 24.35,-23.99 13.45,0 24.35,10.75 24.35,23.99 0,13.24 -10.9,23.98 -24.35,23.98 -13.45,0 -24.35,-10.74 -24.35,-23.98z"/>
   <path class="fil6" d="M942.51 659.13c0,0 1.17,2.96 6.8,0.81l15.38 -4.09c0,0 4.45,-1.34 9.19,2.8 0,0 6.62,4.43 6.13,8.08l-4.29 21.39c0,0 -1.39,3.6 2.78,5.94l17.21 6.44c0,0 4.79,0.45 6.07,-3.42l7.48 -13.47c0,0 2.48,-5.89 10.51,-5.5 0,0 8.11,-0.71 10.95,3.57l9.81 16.12c0,0 1.78,4.1 7.06,1.66l15.25 -6.41c0,0 4.27,-2.77 2.97,-6.52l-4.76 -16.29c0,0 -2.12,-4.39 2.32,-9.27 0,0 4.75,-7.7 11.31,-6.16l18.25 4.28c0,0 3.77,1.65 7.06,-3.62l5.88 -14.41c0,0 1.8,-5.18 -3.32,-7.43l-15.1 -8.62c0,0 -4.21,-1.89 -3.97,-9.42 0,0 -1.14,-8.45 4.26,-11.37l14.81 -8.92c0,0 4.86,-2.15 2.79,-7.19l-6.3 -14.04c0,0 -2.05,-5.49 -8.06,-3.72l-17.21 5.4c0,0 -5.93,-0.08 -9.61,-4.03 0,0 -6.12,-5.81 -4.25,-10.8l3.98 -16.91c0,0 1.01,-4.94 -2.78,-6.74l-17.79 -6.65c0,0 -3.85,-0.24 -5.03,2.67l-10 17.64c0,0 -4.68,3.83 -11.13,2.56 0,0 -6.72,-0.63 -8.28,-2.22 0,0 -10.13,-16.84 -10.62,-17.71 0,0 -1.89,-3.84 -5.8,-2.3l-16.31 6.75c0,0 -3.28,2.02 -2.46,4.91l5.8 21.46c0,0 -1.23,5.24 -5.01,8.12 0,0 -6.64,4.84 -9.84,4.25l-17.8 -4.26c0,0 -5.15,-1.81 -7.18,2.59l-6.66 16.15c0,0 -1.29,3.34 2.24,5.42l17.48 9.86c0,0 5.57,2.51 3.94,12.13 0,0 0.33,7.06 -6.74,10.9 -7.08,3.84 -13.17,7.7 -13.17,7.7 0,0 -3.9,1.84 -2.22,5.98 1.68,4.14 7.98,15.91 7.98,15.91zm46.12 -30.62l0 0c-7.36,-16.97 0.65,-36.61 17.87,-43.84 17.24,-7.26 37.16,0.64 44.51,17.62 7.35,16.97 -0.66,36.6 -17.88,43.84 -17.23,7.25 -37.16,-0.65 -44.5,-17.62z"/>
  </g>
  <path class="fil6" d="M1803.93 1121.08l12.97 73.5c2.73,9.69 8.64,20.27 19.33,20.27l134.54 0c10.68,0 17.93,-8.37 17.93,-19.56l-0.03 -0.2c0.22,-0.31 0.37,-0.63 0.37,-0.96l0 -89.93c0.02,0.37 0.1,0.71 0.1,1.07l0 -19.93c0,-11.19 -8.64,-20.26 -19.32,-20.26l-86.13 0c-0.06,-5.16 -4.31,-9.3 -9.55,-9.3l-33.85 0c-5.29,0 -9.55,4.2 -9.55,9.4 0,0.17 0.03,0.33 0.05,0.5 -8.51,2.12 -14.84,10.09 -14.84,19.66l0 15.46 -0.17 0c-10.68,0 -14.74,8.49 -11.85,20.28zm12.55 -20.28l0 0c1.62,-7.5 7.17,-13.41 14.31,-15.19 -0.02,-0.17 -0.05,-0.32 -0.05,-0.5 0,-5.19 4.26,-9.4 9.55,-9.4l33.85 0c5.24,0 9.49,4.15 9.55,9.3l86.13 0c0.33,0 0.64,0.08 0.96,0.11 5.72,1.98 7.14,7.09 7.44,8.52l0 19.39c-4.03,-7.19 -12.92,-12.23 -20.87,-12.23l-140.87 0z"/>
  <g id="_2154626817040">
   <path class="fil6" d="M500.16 1828.14c0,56.02 46.11,101.45 102.97,101.45 56.87,0 102.97,-45.43 102.97,-101.45 0,-56.04 -46.1,-101.44 -102.97,-101.44 -56.86,0 -102.97,45.4 -102.97,101.44zm17.27 0l0 0c0,-46.63 38.37,-84.44 85.7,-84.44 47.33,0 85.69,37.81 85.69,84.44 0,46.63 -38.36,84.43 -85.69,84.43 -47.33,0 -85.7,-37.8 -85.7,-84.43z"/>
   <path class="fil6" d="M593.78 1821.79c-4.35,4.66 -4.04,11.92 0.69,16.21 4.75,4.3 12.11,3.99 16.46,-0.69 4.36,-4.67 4.05,-11.92 -0.69,-16.21 -4.74,-4.29 -12.11,-3.98 -16.46,0.69z"/>
   <path class="fil6" d="M584.68 1821.42c1.23,1.11 3.56,0.59 5.2,-1.15 1.64,-1.76 1.95,-4.09 0.72,-5.21l-29.83 -27.01c-1.24,-1.12 -3.57,-0.61 -5.2,1.14 -1.65,1.76 -1.97,4.1 -0.73,5.21l29.84 27.02z"/>
   <path class="fil6" d="M613.53 1813.8c-1.52,1.62 -1.3,4.26 0.48,5.86 1.77,1.62 4.45,1.6 5.97,-0.03l36.66 -39.29c1.52,-1.63 1.31,-4.26 -0.47,-5.87 -1.79,-1.61 -4.46,-1.6 -5.98,0.03l-36.66 39.3z"/>
  </g>
  <g id="_2154626869104">
   <path class="fil6" d="M2020.93 611.97l0 -78.34c0,-10.23 -8.42,-18.54 -18.79,-18.54 -10.39,0 -18.8,8.31 -18.8,18.54l0 78.34 37.59 0z"/>
   <path class="fil6" d="M2070.58 611.97l0 -128.11c0,-10.23 -8.41,-18.53 -18.8,-18.53 -10.38,0 -18.79,8.3 -18.79,18.53l0 128.11 37.59 0z"/>
   <path class="fil6" d="M2120.24 611.97l0 -175.84c0,-10.24 -8.42,-18.55 -18.8,-18.55 -10.38,0 -18.81,8.31 -18.81,18.55l0 175.84 37.61 0z"/>
   <path class="fil6" d="M1971.28 611.97l0 -30.28c0,-10.22 -8.41,-18.52 -18.8,-18.52 -10.37,0 -18.81,8.3 -18.81,18.52l0 30.28 37.61 0z"/>
  </g>
  <path class="fil6" d="M1244.37 1757.39c-2.45,0 -4.82,0.22 -7.2,0.54 0,-0.19 0.05,-0.36 0.05,-0.54 0,-28.71 -23.63,-51.98 -52.77,-51.98 -25.24,0 -46.3,17.49 -51.51,40.82 -7.22,-5.45 -16.19,-8.69 -25.98,-8.69 -23.33,0 -42.24,18.29 -42.93,41.11 -4.12,-1.3 -8.51,-2.01 -13.1,-2.01 -23.72,0 -42.97,18.94 -42.97,42.34 0,23.4 19.25,42.36 42.97,42.36l193.44 0c29.15,0 52.76,-23.28 52.76,-52 0,-28.7 -23.61,-51.95 -52.76,-51.95z"/>
  <g id="_2154626865904">
   <path class="fil6" d="M1372.51 909.97l0 -9.96c0,-10.07 -8.29,-18.21 -18.49,-18.21l-159.83 0c-10.2,0 -18.49,8.14 -18.49,18.21l0 67.7c0,10.06 8.29,18.21 18.49,18.21l159.83 0c10.2,0 18.49,-8.15 18.49,-18.21l0 -12.21c9.61,-0.64 17.25,-8.44 17.25,-18.09l0 -9.36c0,-9.65 -7.64,-17.46 -17.25,-18.08zm-24.45 66.9l0 0 -148.7 0c-8.77,0.51 -13.62,-3.61 -13.11,-13.83l0 -57c0.16,-9.46 3.46,-14.02 13.11,-13.86l148.7 0c10.09,-0.16 13.18,4.61 13.1,13.86l0 57c0.74,10.43 -4.33,13.47 -13.1,13.83z"/>
   <polygon class="fil6" points="1228.93,970.37 1251.1,970.37 1251.1,898.7 1228.93,898.7 "/>
   <polygon class="fil6" points="1284.37,898.7 1262.19,898.7 1262.19,970.37 1284.37,970.37 "/>
   <path class="fil6" d="M1217.84 898.7l-11.27 0c-8.79,-0.14 -11.79,3.71 -11.93,11.72l0 48.23c-0.47,8.65 3.95,12.14 11.93,11.72l11.27 0 0 -71.67z"/>
  </g>
 </g>
</svg>
